# ProBuilder 5.0.4
# https://unity3d.com/unity/features/worldbuilding/probuilder
# 2024-06-26 AM 10:10:17

mtllib ./BuspipTest.mtl
o BuspipTest

g Cube (1)
v 0.1940136 -0.2014813 0.6190607
v -0.1938238 -0.2014813 0.6190712
v 0.1940162 0.2474519 0.6190658
v -0.1938211 0.2474517 0.6190763
v -0.1937974 -0.2014813 0.5031797
v -0.1937948 0.2474517 0.5031847
v 0.1940399 -0.2014813 0.5031692
v 0.1940425 0.2474518 0.5031743
v 0.1940544 0.323029 0.6190667
v -0.193783 0.3230288 0.6190772
v 0.1940807 0.3230289 0.5031752
v -0.1937567 0.3230288 0.5031857
v -0.1936869 0.1884559 0.08693915
v 0.1941505 0.188456 0.0869287
v -0.1936488 0.264033 0.08694007
v 0.1941886 0.2640331 0.08692962
v -0.1937045 0.1884558 0.2218194
v 0.1941329 0.1884559 0.221809
v -0.1936664 0.2640329 0.2218203
v 0.194171 0.264033 0.2218099
v 0.1943696 0.9790316 0.2671803
v -0.1934677 0.9790317 0.2671907
v 0.1943873 0.9790317 0.1323
v -0.1934501 0.9790317 0.1323105

vt 0.1939969 -0.2014742
vt -0.1938405 -0.2014743
vt 0.1939995 0.247459
vt -0.1938379 0.2474588
vt 0.6191152 -0.2014825
vt 0.5032237 -0.2014824
vt 0.6191202 0.2474506
vt 0.5032287 0.2474506
vt -0.1940263 -0.2014756
vt -0.1940289 0.2474574
vt -0.5031251 -0.2014801
vt -0.6190166 -0.2014802
vt -0.5031303 0.2474529
vt -0.6190218 0.2474531
vt -0.1940546 0.6190671
vt 0.1937828 0.6190776
vt -0.1940809 0.5031756
vt 0.1937565 0.5031861
vt 0.1940399 0.5031693
vt -0.1937974 0.5031798
vt 0.1940136 0.6190608
vt -0.1938238 0.6190713
vt 0.1940377 0.3230363
vt -0.1937996 0.3230361
vt -0.5031303 0.2475497
vt -0.6190218 0.2475498
vt -0.5031312 0.3231268
vt -0.6190227 0.3231269
vt 0.6191212 0.3229311
vt 0.5032297 0.3229311
vt 0.1936892 0.188457
vt -0.1941482 0.1884571
vt 0.1936511 0.264034
vt -0.1941863 0.2640341
vt -0.1937934 0.5432564
vt 0.194044 0.5432457
vt -0.1937034 0.2557726
vt 0.194134 0.2557619
vt 0.2219029 0.2639353
vt 0.2219021 0.1883582
vt -0.2217261 0.1885539
vt -0.221727 0.264131
vt -0.1940826 0.5587561
vt 0.1937548 0.5587668
vt -0.1941725 0.2712723
vt 0.1936648 0.2712829
vt -0.1937045 0.2218193
vt 0.1941329 0.2218089
vt -0.1936868 0.08693907
vt 0.1941505 0.08692862
vt 0.08696537 0.2639353
vt 0.08696447 0.1883582
vt -0.08690333 0.1885539
vt -0.08690424 0.264131
vt -0.1943695 0.2671798
vt 0.1934679 0.2671903
vt -0.1943871 0.1322996
vt 0.1934503 0.13231
vt 0.194165 0.2775501
vt -0.1936724 0.27755
vt 0.1943624 0.9939868
vt -0.1934749 0.9939868
vt -0.1322746 0.9790872
vt -0.2671549 0.9790872
vt 0.267216 0.9789762
vt 0.1323358 0.9789763
vt 0.1936511 0.2690084
vt -0.1941863 0.2690085
vt 0.1934537 0.9854452
vt -0.1943837 0.9854451

vn 2.70485E-05 -1.141834E-05 1
vn -1 5.877616E-06 -0.0002270697
vn -2.70485E-05 1.128557E-05 -1
vn 1 -5.844454E-06 0.0002270697
vn -6.147733E-07 1 -1.285925E-06
vn -1.391142E-11 -1 -5.143141E-07
vn 0.9999999 -0.0005043508 0.0002269418
vn -0.9999999 0.0005043511 -0.0002269411
vn 5.707222E-06 -0.978717 0.2052145
vn -5.776364E-06 0.978717 -0.2052145
vn 2.689377E-05 -0.06332789 0.9979928
vn 0.9999999 -0.0002861223 0.0001306941
vn -0.9999999 0.0002861222 -0.0001306941
vn -2.689377E-05 0.06332786 -0.9979928

usemtl white_1
f 3/3/1 4/4/1 2/2/1 1/1/1
f 4/7/2 6/8/2 5/6/2 2/5/2
f 6/3/3 8/10/3 7/9/3 5/1/3
f 8/13/4 3/14/4 1/12/4 7/11/4
f 11/17/5 12/18/5 10/16/5 9/15/5
f 1/21/6 2/22/6 5/20/6 7/19/6
f 9/23/1 10/24/1 4/4/1 3/3/1
f 11/27/7 9/28/7 3/26/7 8/25/7
f 10/29/8 12/30/8 6/8/8 4/7/8
f 15/33/3 16/34/3 14/32/3 13/31/3
f 17/37/9 18/38/9 8/36/9 6/35/9
f 19/39/8 17/40/8 6/8/8 12/30/8
f 18/41/7 20/42/7 11/27/7 8/25/7
f 20/45/10 19/46/10 12/44/10 11/43/10
f 13/49/6 14/50/6 18/48/6 17/47/6
f 15/51/8 13/52/8 17/40/8 19/39/8
f 14/53/7 16/54/7 20/42/7 18/41/7
f 23/57/5 24/58/5 22/56/5 21/55/5
f 21/61/11 22/62/11 19/60/11 20/59/11
f 23/63/12 21/64/12 20/42/12 16/54/12
f 22/65/13 24/66/13 15/51/13 19/39/13
f 24/69/14 23/70/14 16/68/14 15/67/14

